<svg clip-rule="evenodd" height="128" stroke-linecap="round" stroke-linejoin="round" stroke-miterlimit="10" viewBox="0 0 128 128" width="128" xmlns="http://www.w3.org/2000/svg" xmlns:xlink="http://www.w3.org/1999/xlink"><clipPath id="a"><path clip-rule="evenodd" d="m0 128h128v-128h-128z"/></clipPath><clipPath id="b"><path clip-rule="evenodd" d="m0 128h128v-128h-128z"/></clipPath><g clip-path="url(#a)"><g clip-path="url(#b)" fill-rule="evenodd"><path d="m0 64c0-35.3462 28.6538-64 64-64s64 28.6538 64 64-28.6538 64-64 64-64-28.6538-64-64z"/><path d="m25.526 93.9158 23.2627-37.9716 10.1403 9.9187 12.0101-18.2586 13.8169 10.5121 9.4096-28.521 8.3084 2.8999-13.2562 39.9982-16.064-12.2542-12.7682 19.7988-9.9087-10.0522-17.4817 28.4187s-7.4692-4.4888-7.4692-4.4888z" fill="#fff"/></g></g></svg>